<svg width="485" height="360" viewBox="0 0 485 360" fill="none" xmlns="http://www.w3.org/2000/svg">
<g clip-path="url(#clip0)">
<path d="M234.354 318.164C130.161 310.4 5.90603 231.35 12.232 149.954C18.5581 68.558 138.901 -7.21464 243.094 0.549269C347.287 8.31317 407.264 160.428 400.938 241.824C394.612 323.22 338.548 325.928 234.354 318.164Z" fill="#F2F2F2"/>
<path d="M243.093 331.238C363.215 331.238 460.593 325.396 460.593 318.19C460.593 310.984 363.215 305.143 243.093 305.143C122.971 305.143 25.5928 310.984 25.5928 318.19C25.5928 325.396 122.971 331.238 243.093 331.238Z" fill="#3F3D56"/>
<path opacity="0.1" d="M243.093 326.608C345.41 326.608 428.355 322.745 428.355 317.98C428.355 313.215 345.41 309.352 243.093 309.352C140.775 309.352 57.8309 313.215 57.8309 317.98C57.8309 322.745 140.775 326.608 243.093 326.608Z" fill="black"/>
<path d="M91.3586 359.858C141.732 359.858 182.568 356.372 182.568 352.072C182.568 347.771 141.732 344.285 91.3586 344.285C40.9849 344.285 0.148926 347.771 0.148926 352.072C0.148926 356.372 40.9849 359.858 91.3586 359.858Z" fill="#3F3D56"/>
<path opacity="0.1" d="M91.3586 357.095C134.266 357.095 169.049 354.79 169.049 351.946C169.049 349.102 134.266 346.797 91.3586 346.797C48.4514 346.797 13.6682 349.102 13.6682 351.946C13.6682 354.79 48.4514 357.095 91.3586 357.095Z" fill="black"/>
<path d="M407.722 68.1837H84.4811V316.507H407.722V68.1837Z" fill="#3F3D56"/>
<path d="M242.424 102.119H162.681C162.554 102.12 162.428 102.095 162.31 102.048C162.192 102 162.085 101.931 161.995 101.843C161.905 101.755 161.834 101.65 161.785 101.535C161.736 101.42 161.711 101.296 161.711 101.172C161.711 101.047 161.736 100.924 161.785 100.809C161.834 100.694 161.905 100.589 161.995 100.501C162.085 100.413 162.192 100.343 162.31 100.296C162.428 100.248 162.554 100.224 162.681 100.224H242.424C242.68 100.225 242.926 100.325 243.107 100.502C243.288 100.68 243.39 100.921 243.39 101.172C243.39 101.423 243.288 101.664 243.107 101.841C242.926 102.019 242.68 102.119 242.424 102.119Z" fill="#F2F2F2"/>
<path d="M329.716 112.543H204.294C204.038 112.543 203.792 112.443 203.61 112.265C203.429 112.088 203.327 111.847 203.327 111.595C203.327 111.344 203.429 111.103 203.61 110.925C203.792 110.748 204.038 110.648 204.294 110.648H329.716C329.843 110.648 329.969 110.672 330.086 110.72C330.204 110.768 330.31 110.837 330.4 110.925C330.49 111.013 330.561 111.118 330.61 111.233C330.659 111.348 330.684 111.471 330.684 111.595C330.684 111.72 330.659 111.843 330.61 111.958C330.561 112.073 330.49 112.177 330.4 112.265C330.31 112.353 330.204 112.423 330.086 112.471C329.969 112.518 329.843 112.543 329.716 112.543Z" fill="#F2F2F2"/>
<path d="M242.811 122.967H163.068C162.811 122.967 162.565 122.867 162.384 122.689C162.202 122.511 162.1 122.27 162.1 122.019C162.1 121.768 162.202 121.527 162.384 121.349C162.565 121.171 162.811 121.071 163.068 121.071H242.811C243.068 121.071 243.314 121.171 243.496 121.349C243.677 121.527 243.779 121.768 243.779 122.019C243.779 122.27 243.677 122.511 243.496 122.689C243.314 122.867 243.068 122.967 242.811 122.967Z" fill="#F2F2F2"/>
<path d="M329.716 123.156H249.973C249.716 123.156 249.47 123.056 249.288 122.879C249.107 122.701 249.005 122.46 249.005 122.208C249.005 121.957 249.107 121.716 249.288 121.538C249.47 121.361 249.716 121.261 249.973 121.261H329.716C329.973 121.261 330.219 121.361 330.4 121.538C330.582 121.716 330.684 121.957 330.684 122.208C330.684 122.46 330.582 122.701 330.4 122.879C330.219 123.056 329.973 123.156 329.716 123.156Z" fill="#F2F2F2"/>
<path d="M243.005 133.39H163.262C163.005 133.39 162.759 133.29 162.577 133.113C162.396 132.935 162.294 132.694 162.294 132.442C162.294 132.191 162.396 131.95 162.577 131.772C162.759 131.595 163.005 131.495 163.262 131.495H243.005C243.262 131.495 243.508 131.595 243.689 131.772C243.871 131.95 243.973 132.191 243.973 132.442C243.973 132.694 243.871 132.935 243.689 133.113C243.508 133.29 243.262 133.39 243.005 133.39Z" fill="#F2F2F2"/>
<path d="M243.198 143.814H163.455C163.198 143.814 162.952 143.714 162.771 143.536C162.589 143.358 162.487 143.117 162.487 142.866C162.487 142.615 162.589 142.374 162.771 142.196C162.952 142.018 163.198 141.918 163.455 141.918H243.198C243.455 141.918 243.701 142.018 243.883 142.196C244.064 142.374 244.166 142.615 244.166 142.866C244.166 143.117 244.064 143.358 243.883 143.536C243.701 143.714 243.455 143.814 243.198 143.814Z" fill="#F2F2F2"/>
<path d="M279.392 102.309H256.553C256.297 102.309 256.051 102.209 255.869 102.031C255.688 101.854 255.586 101.613 255.586 101.361C255.586 101.11 255.688 100.869 255.869 100.691C256.051 100.514 256.297 100.414 256.553 100.414H279.392C279.649 100.414 279.895 100.514 280.077 100.691C280.258 100.869 280.36 101.11 280.36 101.361C280.36 101.613 280.258 101.854 280.077 102.031C279.895 102.209 279.649 102.309 279.392 102.309Z" fill="#F2F2F2"/>
<path d="M279.392 133.39H256.553C256.297 133.39 256.051 133.29 255.869 133.113C255.688 132.935 255.586 132.694 255.586 132.442C255.586 132.191 255.688 131.95 255.869 131.772C256.051 131.595 256.297 131.495 256.553 131.495H279.392C279.649 131.495 279.895 131.595 280.077 131.772C280.258 131.95 280.36 132.191 280.36 132.442C280.36 132.694 280.258 132.935 280.077 133.113C279.895 133.29 279.649 133.39 279.392 133.39Z" fill="#F2F2F2"/>
<path d="M279.392 143.624H256.553C256.426 143.624 256.3 143.6 256.182 143.553C256.065 143.505 255.958 143.435 255.868 143.347C255.778 143.259 255.706 143.155 255.657 143.04C255.609 142.925 255.584 142.801 255.584 142.677C255.584 142.552 255.609 142.429 255.657 142.313C255.706 142.198 255.778 142.094 255.868 142.006C255.958 141.918 256.065 141.848 256.182 141.8C256.3 141.753 256.426 141.729 256.553 141.729H279.392C279.52 141.729 279.646 141.753 279.763 141.8C279.881 141.848 279.988 141.918 280.078 142.006C280.168 142.094 280.24 142.198 280.288 142.313C280.337 142.429 280.362 142.552 280.362 142.677C280.362 142.801 280.337 142.925 280.288 143.04C280.24 143.155 280.168 143.259 280.078 143.347C279.988 143.435 279.881 143.505 279.763 143.553C279.646 143.6 279.52 143.624 279.392 143.624Z" fill="#F2F2F2"/>
<path d="M317.716 143.624H294.877C294.62 143.624 294.375 143.524 294.194 143.346C294.013 143.168 293.911 142.927 293.911 142.677C293.911 142.426 294.013 142.185 294.194 142.007C294.375 141.83 294.62 141.729 294.877 141.729H317.716C317.843 141.729 317.969 141.753 318.087 141.8C318.204 141.848 318.311 141.918 318.401 142.006C318.491 142.094 318.563 142.198 318.612 142.313C318.66 142.429 318.686 142.552 318.686 142.677C318.686 142.801 318.66 142.925 318.612 143.04C318.563 143.155 318.491 143.259 318.401 143.347C318.311 143.435 318.204 143.505 318.087 143.553C317.969 143.6 317.843 143.624 317.716 143.624Z" fill="#F2F2F2"/>
<path d="M185.326 112.543H162.487C162.231 112.543 161.985 112.443 161.803 112.265C161.622 112.088 161.52 111.847 161.52 111.595C161.52 111.344 161.622 111.103 161.803 110.925C161.985 110.748 162.231 110.648 162.487 110.648H185.326C185.583 110.648 185.829 110.748 186.011 110.925C186.192 111.103 186.294 111.344 186.294 111.595C186.294 111.847 186.192 112.088 186.011 112.265C185.829 112.443 185.583 112.543 185.326 112.543Z" fill="#F2F2F2"/>
<path d="M242.521 255.63H162.778C162.521 255.63 162.275 255.53 162.093 255.353C161.912 255.175 161.81 254.934 161.81 254.682C161.81 254.431 161.912 254.19 162.093 254.012C162.275 253.835 162.521 253.735 162.778 253.735H242.521C242.778 253.735 243.024 253.835 243.205 254.012C243.387 254.19 243.489 254.431 243.489 254.682C243.489 254.934 243.387 255.175 243.205 255.353C243.024 255.53 242.778 255.63 242.521 255.63Z" fill="#F2F2F2"/>
<path d="M242.134 276.477H162.391C162.134 276.477 161.888 276.377 161.706 276.2C161.525 276.022 161.423 275.781 161.423 275.53C161.423 275.278 161.525 275.037 161.706 274.86C161.888 274.682 162.134 274.582 162.391 274.582H242.134C242.39 274.582 242.637 274.682 242.818 274.86C243 275.037 243.102 275.278 243.102 275.53C243.102 275.781 243 276.022 242.818 276.2C242.637 276.377 242.39 276.477 242.134 276.477Z" fill="#F2F2F2"/>
<path d="M242.327 286.901H162.584C162.457 286.901 162.331 286.877 162.213 286.829C162.095 286.782 161.989 286.712 161.898 286.624C161.808 286.536 161.737 286.431 161.688 286.316C161.639 286.201 161.614 286.078 161.614 285.953C161.614 285.829 161.639 285.705 161.688 285.59C161.737 285.475 161.808 285.37 161.898 285.282C161.989 285.194 162.095 285.125 162.213 285.077C162.331 285.03 162.457 285.005 162.584 285.006H242.327C242.455 285.005 242.581 285.03 242.698 285.077C242.816 285.125 242.923 285.194 243.013 285.282C243.103 285.37 243.175 285.475 243.223 285.59C243.272 285.705 243.297 285.829 243.297 285.953C243.297 286.078 243.272 286.201 243.223 286.316C243.175 286.431 243.103 286.536 243.013 286.624C242.923 286.712 242.816 286.782 242.698 286.829C242.581 286.877 242.455 286.901 242.327 286.901Z" fill="#F2F2F2"/>
<path d="M276.392 276.667H253.553C253.297 276.667 253.051 276.567 252.869 276.389C252.688 276.211 252.586 275.97 252.586 275.719C252.586 275.468 252.688 275.227 252.869 275.049C253.051 274.871 253.297 274.771 253.553 274.771H276.392C276.649 274.771 276.895 274.871 277.077 275.049C277.258 275.227 277.36 275.468 277.36 275.719C277.36 275.97 277.258 276.211 277.077 276.389C276.895 276.567 276.649 276.667 276.392 276.667Z" fill="#F2F2F2"/>
<path d="M276.392 286.901H253.553C253.297 286.901 253.051 286.801 252.869 286.623C252.688 286.445 252.586 286.204 252.586 285.953C252.586 285.702 252.688 285.461 252.869 285.283C253.051 285.105 253.297 285.006 253.553 285.006H276.392C276.649 285.006 276.895 285.105 277.077 285.283C277.258 285.461 277.36 285.702 277.36 285.953C277.36 286.204 277.258 286.445 277.077 286.623C276.895 286.801 276.649 286.901 276.392 286.901Z" fill="#F2F2F2"/>
<path d="M314.716 276.667H291.877C291.62 276.667 291.374 276.567 291.192 276.389C291.011 276.211 290.909 275.97 290.909 275.719C290.909 275.468 291.011 275.227 291.192 275.049C291.374 274.871 291.62 274.771 291.877 274.771H314.716C314.972 274.771 315.218 274.871 315.4 275.049C315.581 275.227 315.683 275.468 315.683 275.719C315.683 275.97 315.581 276.211 315.4 276.389C315.218 276.567 314.972 276.667 314.716 276.667Z" fill="#F2F2F2"/>
<path d="M329.813 266.054H204.391C204.135 266.054 203.888 265.954 203.707 265.776C203.525 265.598 203.423 265.357 203.423 265.106C203.423 264.855 203.525 264.614 203.707 264.436C203.888 264.258 204.135 264.158 204.391 264.158H329.813C330.069 264.158 330.316 264.258 330.497 264.436C330.678 264.614 330.78 264.855 330.78 265.106C330.78 265.357 330.678 265.598 330.497 265.776C330.316 265.954 330.069 266.054 329.813 266.054Z" fill="#F2F2F2"/>
<path d="M185.423 266.054H162.584C162.327 266.054 162.081 265.954 161.9 265.776C161.718 265.598 161.616 265.357 161.616 265.106C161.616 264.855 161.718 264.614 161.9 264.436C162.081 264.258 162.327 264.158 162.584 264.158H185.423C185.68 264.158 185.926 264.258 186.107 264.436C186.289 264.614 186.391 264.855 186.391 265.106C186.391 265.357 186.289 265.598 186.107 265.776C185.926 265.954 185.68 266.054 185.423 266.054Z" fill="#F2F2F2"/>
<path d="M329.813 297.514H204.391C204.264 297.514 204.138 297.49 204.02 297.442C203.903 297.395 203.796 297.325 203.706 297.237C203.616 297.149 203.544 297.044 203.495 296.929C203.447 296.814 203.421 296.691 203.421 296.566C203.421 296.442 203.447 296.318 203.495 296.203C203.544 296.088 203.616 295.983 203.706 295.895C203.796 295.807 203.903 295.738 204.02 295.69C204.138 295.643 204.264 295.618 204.391 295.619H329.813C330.069 295.619 330.316 295.718 330.497 295.896C330.679 296.074 330.78 296.315 330.78 296.566C330.78 296.818 330.679 297.059 330.497 297.236C330.316 297.414 330.069 297.514 329.813 297.514Z" fill="#F2F2F2"/>
<path d="M185.423 297.514H162.584C162.457 297.514 162.331 297.49 162.213 297.442C162.095 297.395 161.989 297.325 161.898 297.237C161.808 297.149 161.737 297.044 161.688 296.929C161.639 296.814 161.614 296.691 161.614 296.566C161.614 296.442 161.639 296.318 161.688 296.203C161.737 296.088 161.808 295.983 161.898 295.895C161.989 295.807 162.095 295.738 162.213 295.69C162.331 295.643 162.457 295.618 162.584 295.619H185.423C185.55 295.618 185.677 295.643 185.794 295.69C185.912 295.738 186.019 295.807 186.109 295.895C186.199 295.983 186.27 296.088 186.319 296.203C186.368 296.318 186.393 296.442 186.393 296.566C186.393 296.691 186.368 296.814 186.319 296.929C186.27 297.044 186.199 297.149 186.109 297.237C186.019 297.325 185.912 297.395 185.794 297.442C185.677 297.49 185.55 297.514 185.423 297.514Z" fill="#F2F2F2"/>
<path d="M223.263 168.83L192.294 198.774L223.263 228.718L230.23 221.896L206.811 198.964L230.424 175.842L223.263 168.83Z" fill="#81C117"/>
<path d="M268.941 168.83L299.909 198.774L268.941 228.718L261.973 221.896L285.393 198.964L261.779 175.842L268.941 168.83Z" fill="#81C117"/>
<path d="M93.0779 78.2849C95.2145 78.2849 96.9465 76.589 96.9465 74.4969C96.9465 72.4049 95.2145 70.709 93.0779 70.709C90.9414 70.709 89.2094 72.4049 89.2094 74.4969C89.2094 76.589 90.9414 78.2849 93.0779 78.2849Z" fill="#81C117"/>
<path d="M103.394 78.2849C105.531 78.2849 107.263 76.589 107.263 74.4969C107.263 72.4049 105.531 70.709 103.394 70.709C101.258 70.709 99.5256 72.4049 99.5256 74.4969C99.5256 76.589 101.258 78.2849 103.394 78.2849Z" fill="#77C117"/>
<path d="M113.71 78.2849C115.847 78.2849 117.579 76.589 117.579 74.4969C117.579 72.4049 115.847 70.709 113.71 70.709C111.574 70.709 109.842 72.4049 109.842 74.4969C109.842 76.589 111.574 78.2849 113.71 78.2849Z" fill="#81C117"/>
<path opacity="0.1" d="M407.722 80.8102H84.4811V82.0729H407.722V80.8102Z" fill="black"/>
<path d="M484.234 255.669C484.234 282.51 467.938 291.881 447.837 291.881C427.735 291.881 411.439 282.51 411.439 255.669C411.439 228.829 447.837 194.684 447.837 194.684C447.837 194.684 484.234 228.829 484.234 255.669Z" fill="#F2F2F2"/>
<path d="M446.511 287.775L446.884 265.312L462.397 237.522L446.942 261.789L447.11 251.688L457.801 231.583L447.154 249.016L447.455 230.85L458.904 214.843L447.502 227.993L447.691 194.684L446.507 238.78L446.605 236.961L434.964 219.514L446.418 240.453L445.333 260.741L445.301 260.202L431.882 241.842L445.26 262.104L445.125 264.641L445.101 264.68L445.112 264.888L442.36 316.361H446.036L446.477 289.774L459.824 269.562L446.511 287.775Z" fill="#3F3D56"/>
<path d="M52.8568 316.124C51.7401 316.733 50.562 317.227 49.3415 317.599C47.1584 318.183 44.8251 317.968 42.62 318.467C41.7172 318.671 40.7346 319.098 40.4475 319.96C40.2369 320.593 40.466 321.276 40.6854 321.906C43.122 328.901 44.5906 336.328 48.4764 342.665C50.1094 345.326 52.1363 347.735 54.491 349.814C55.3744 350.594 56.3755 351.357 57.5581 351.479C58.1031 351.535 58.6537 351.45 59.1542 351.231C59.6548 351.013 60.0876 350.669 60.4089 350.234C60.7303 349.799 60.9288 349.289 60.9846 348.756C61.0403 348.222 60.9512 347.683 60.7263 347.194C60.3779 346.435 59.7302 345.848 59.3125 345.125C58.8596 344.203 58.594 343.203 58.5304 342.182C58.1465 339.191 57.7767 336.064 58.8354 333.232C59.5454 331.333 60.8479 329.714 61.933 327.993C63.0181 326.272 63.9196 324.301 63.6781 322.293C63.5134 320.922 62.8305 319.668 62.1092 318.482C61.3865 317.294 59.958 314.101 58.5059 313.705C56.9986 313.293 54.1713 315.465 52.8568 316.124Z" fill="#2F2E41"/>
<path d="M92.5892 340.287C92.612 340.964 92.5155 341.639 92.3042 342.284C91.8496 343.46 90.7219 344.265 90.1393 345.385C89.3291 346.942 89.6963 348.825 90.2331 350.492C90.5697 351.537 91.0111 352.625 91.9149 353.271C92.6878 353.74 93.5667 354.016 94.4741 354.074C102.227 355.124 110.102 354.522 117.926 354.742C119.352 354.782 120.861 354.831 122.106 354.148C123.351 353.466 124.12 351.751 123.274 350.627C122.513 349.617 121.01 349.626 119.731 349.567C116.399 349.401 113.226 348.121 110.742 345.941C110.252 345.531 109.827 345.052 109.481 344.52C109.215 344.047 108.994 343.552 108.821 343.039C107.724 340.131 106.42 337.301 104.917 334.572C104.496 333.808 104.02 333.012 103.238 332.604C102.665 332.349 102.044 332.216 101.415 332.214C99.4656 332.09 94.4163 331.44 92.9085 332.925C91.5153 334.297 92.6201 338.545 92.5892 340.287Z" fill="#2F2E41"/>
<path d="M104.588 170.752C111.466 170.752 117.043 165.292 117.043 158.557C117.043 151.821 111.466 146.361 104.588 146.361C97.7094 146.361 92.1333 151.821 92.1333 158.557C92.1333 165.292 97.7094 170.752 104.588 170.752Z" fill="#FBBEBE"/>
<path d="M93.3411 168.627C92.6003 170.568 91.3438 172.392 89.5154 173.437L106.741 176.878C106.116 174.416 106.034 171.852 106.5 169.357C106.671 168.753 106.706 168.12 106.603 167.501C106.279 166.278 104.872 165.689 103.613 165.408C100.469 164.706 97.689 164.33 94.7675 162.97C93.8745 164.467 93.9995 166.901 93.3411 168.627Z" fill="#FBBEBE"/>
<path d="M89.3714 168.871C91.2246 168.05 93.2435 167.65 95.2768 167.702C97.3101 167.755 99.305 168.257 101.112 169.171C103.32 170.311 105.149 172.031 106.945 173.728C108.601 175.292 110.368 177.084 110.485 179.334C110.542 180.424 110.195 181.49 110.02 182.568C109.704 184.797 110.105 187.067 111.166 189.063C112.228 191.059 113.897 192.683 115.943 193.708C117.311 195.941 117.594 198.645 117.615 201.248C117.694 211.112 114.516 221.098 116.785 230.708C117.318 232.965 118.144 235.15 118.604 237.422C119.2 240.364 119.171 243.39 119.483 246.374C119.821 249.606 120.559 252.785 121.68 255.842C120.931 257.01 119.371 257.457 117.966 257.363C116.561 257.268 115.247 256.671 113.993 256.043C107.922 253.001 102.362 248.99 96.0743 246.405C91.9144 244.695 87.4829 243.629 83.4473 241.654C79.4118 239.678 75.6586 236.543 74.4247 232.294C73.8912 230.457 73.8583 228.521 73.8292 226.611C73.7066 218.566 73.5926 210.434 75.3809 202.581C76.958 195.656 79.9981 189.031 80.6613 181.966C80.8772 179.666 80.8818 177.204 82.1941 175.285C84.0489 172.572 88.0539 171.87 89.3714 168.871Z" fill="#2F2E41"/>
<path d="M97.5045 158.729C98.2384 157.792 99.6538 157.664 100.826 157.941C101.999 158.218 103.08 158.81 104.264 159.035C104.533 159.109 104.815 159.128 105.092 159.09C105.369 159.052 105.635 158.958 105.873 158.813C106.287 158.414 106.534 157.879 106.567 157.311C106.982 154.894 107.079 152.436 106.856 149.995C106.794 149.653 106.817 149.301 106.924 148.97C107.217 148.278 108.111 148.113 108.842 147.891C110.047 147.492 111.082 146.712 111.784 145.673C112.485 144.634 112.813 143.395 112.716 142.153C112.698 141.558 112.442 140.993 112.004 140.579C111.499 140.176 110.792 140.151 110.14 140.146C106.792 140.12 103.444 140.121 100.096 140.148C98.857 140.159 97.5556 140.189 96.4814 140.794C95.6872 141.241 95.0966 141.961 94.3836 142.524C92.524 143.993 90.0087 144.292 87.7463 145.045C86.6419 145.353 85.639 145.939 84.8373 146.744C84.085 147.586 83.7232 148.837 84.1958 149.855C84.4383 150.28 84.7093 150.688 85.0068 151.078C86.3413 153.167 85.4529 155.877 85.6522 158.334C85.901 161.401 90.5373 166.377 93.6811 167.103C98.7565 168.275 95.8243 160.742 97.5045 158.729Z" fill="#2F2E41"/>
<path d="M90.4734 293.225C90.7937 295.464 91.2045 297.712 91.0946 299.971C90.9413 303.125 89.7797 306.164 89.565 309.314C89.4046 311.668 89.7755 314.046 89.4418 316.382C89.2281 317.877 88.73 319.319 88.4217 320.798C87.9334 323.21 87.9472 325.692 88.4622 328.098C88.9773 330.504 89.9829 332.783 91.419 334.799C91.63 335.144 91.93 335.429 92.2888 335.625C92.6329 335.75 93.0013 335.797 93.3668 335.764C96.9918 335.692 100.607 335.37 104.186 334.802C104.448 334.791 104.696 334.684 104.881 334.502C104.961 334.381 105.013 334.243 105.032 334.1C105.695 330.76 104.182 327.411 103.797 324.029C103.386 320.418 104.271 316.799 105.149 313.269C105.548 311.528 106.045 309.809 106.64 308.122C107.064 306.987 107.577 305.883 107.945 304.729C108.466 302.916 108.784 301.053 108.892 299.172C109.147 296.205 109.282 293.231 109.298 290.25C109.384 287.425 109.144 284.6 108.582 281.828C107.775 278.318 106.122 275.06 104.483 271.84C103.607 272.046 102.784 272.428 102.068 272.964C99.9567 274.303 97.7519 275.496 95.4702 276.533C93.9371 277.231 90.9474 277.726 89.9744 279.179C89.0149 280.612 89.634 283.535 89.7073 285.116C89.8331 287.828 90.0885 290.531 90.4734 293.225Z" fill="#2F2E41"/>
<path opacity="0.1" d="M90.4734 293.225C90.7937 295.464 91.2045 297.712 91.0946 299.971C90.9413 303.125 89.7797 306.164 89.565 309.314C89.4046 311.668 89.7755 314.046 89.4418 316.382C89.2281 317.877 88.73 319.319 88.4217 320.798C87.9334 323.21 87.9472 325.692 88.4622 328.098C88.9773 330.504 89.9829 332.783 91.419 334.799C91.63 335.144 91.93 335.429 92.2888 335.625C92.6329 335.75 93.0013 335.797 93.3668 335.764C96.9918 335.692 100.607 335.37 104.186 334.802C104.448 334.791 104.696 334.684 104.881 334.502C104.961 334.381 105.013 334.243 105.032 334.1C105.695 330.76 104.182 327.411 103.797 324.029C103.386 320.418 104.271 316.799 105.149 313.269C105.548 311.528 106.045 309.809 106.64 308.122C107.064 306.987 107.577 305.883 107.945 304.729C108.466 302.916 108.784 301.053 108.892 299.172C109.147 296.205 109.282 293.231 109.298 290.25C109.384 287.425 109.144 284.6 108.582 281.828C107.775 278.318 106.122 275.06 104.483 271.84C103.607 272.046 102.784 272.428 102.068 272.964C99.9567 274.303 97.7519 275.496 95.4702 276.533C93.9371 277.231 90.9474 277.726 89.9744 279.179C89.0149 280.612 89.634 283.535 89.7073 285.116C89.8331 287.828 90.0885 290.531 90.4734 293.225Z" fill="black"/>
<path d="M73.6352 245.385C71.9812 249.745 74.4124 254.456 76.5246 258.622C81.7282 268.886 85.3418 279.838 88.936 290.743C89.2053 291.56 89.4743 292.451 89.1741 293.258C88.9149 293.831 88.4942 294.319 87.9612 294.666C85.483 296.51 82.3274 297.166 79.3752 298.13C76.5222 299.063 73.7897 300.317 71.2329 301.868C69.0937 303.166 67.0897 304.664 65.0897 306.16L58.7228 310.921C58.3106 311.194 57.9504 311.535 57.6586 311.93C57.0446 312.873 57.2961 314.105 57.6018 315.182C58.4115 318.036 59.4539 320.822 60.7191 323.513C60.9273 324.102 61.3236 324.611 61.8496 324.963C62.8433 325.486 64.0588 324.793 64.8177 323.975C65.5766 323.158 66.2329 322.141 67.3027 321.79C68.3711 321.439 69.5471 321.864 70.663 321.71C72.4678 321.462 73.666 319.834 74.9669 318.585C80.282 313.479 89.156 313.849 95.0029 309.335C95.848 308.594 96.7428 307.91 97.6812 307.286C98.6697 306.714 99.7906 306.4 100.816 305.894C103.935 304.356 105.896 301.177 106.947 297.916C107.997 294.654 108.297 291.212 109.052 287.873C109.442 286.147 109.956 284.44 110.129 282.68C110.241 281.043 110.204 279.4 110.02 277.77L107.911 252.215C107.739 250.135 107.567 248.052 107.233 245.99C100.968 246.21 94.7065 246.456 88.4372 246.529C83.4487 246.587 78.3685 246.928 73.6352 245.385Z" fill="#2F2E41"/>
<path d="M71.3318 251.362C72.1818 252.701 74.2505 252.673 75.6751 251.939C77.0996 251.206 78.2063 249.973 79.6342 249.245C81.553 248.268 83.8235 248.304 85.9856 248.364C89.4087 248.459 92.8738 248.56 96.1673 249.478C99.5737 250.428 102.89 252.257 106.412 251.892C107.025 251.829 107.695 251.657 108.029 251.149C108.224 250.782 108.316 250.37 108.295 249.956L108.41 246.943C108.481 246.422 108.396 245.892 108.165 245.417C107.87 245.022 107.465 244.718 106.998 244.542C101.984 242.165 96.2671 241.723 90.7004 241.536C87.8707 241.441 85.0399 241.402 82.2078 241.419C79.8046 241.433 76.9195 241.093 74.583 241.722C71.4472 242.565 69.741 248.857 71.3318 251.362Z" fill="#2F2E41"/>
<path d="M102.812 172.448C96.2431 172.391 90.2903 168.146 83.722 168.042C82.9284 167.988 82.1333 168.123 81.404 168.434C80.4887 168.885 79.887 169.758 79.1917 170.495C77.2496 172.555 74.4371 173.654 72.4419 175.664C70.5711 177.549 69.5306 180.357 70.2692 182.884C71.0078 185.411 73.7955 187.349 76.4069 186.741C77.4591 183.407 79.6306 180.518 82.5695 178.543C84.0987 177.582 85.7102 176.754 87.386 176.067C90.3381 174.757 93.6393 173.423 96.7213 174.404C97.8579 174.825 98.9296 175.397 99.906 176.105L105.044 179.485C104.446 177.172 103.907 174.579 102.812 172.448Z" fill="#77C117"/>
<path d="M75.6503 184.506C74.778 185.571 76.0346 187.115 75.8423 188.468C75.7145 189.366 74.9592 190.052 74.6447 190.906C74.3189 191.79 74.4917 192.769 74.3681 193.701C74.2441 194.379 74.0608 195.045 73.82 195.692C73.2667 197.624 72.8804 199.599 72.6653 201.595L71.5155 210.003C71.316 211.268 71.1946 212.544 71.1519 213.823C71.2099 214.78 71.1446 215.739 70.9576 216.68C70.703 217.599 70.1392 218.402 69.76 219.279C69.3807 220.155 69.2049 221.216 69.7172 222.025C68.0015 223.424 67.4914 226.172 68.6911 228.016C68.9194 228.304 69.0981 228.626 69.2198 228.97C69.2861 229.45 69.2051 229.94 68.987 230.376L67.8244 233.409C67.5268 234.185 67.4327 235.367 68.26 235.544C67.5747 236.241 67.0408 237.067 66.6905 237.972C66.5206 238.426 66.4698 238.914 66.5429 239.393C66.6159 239.871 66.8104 240.324 67.1085 240.71C67.3974 240.958 67.6433 241.25 67.8369 241.575C67.9506 242.028 67.9212 242.504 67.7527 242.94C67.5788 243.603 67.5453 244.293 67.6542 244.968C67.7631 245.644 68.0121 246.291 68.3858 246.868C68.7731 247.438 69.3216 247.886 69.9642 248.155C70.6068 248.425 71.3158 248.506 72.0044 248.387C74.3301 247.874 76.4199 247.063 78.7648 247.484C83.8137 248.391 88.8789 249.302 93.7689 250.831C99.35 252.576 104.754 255.134 110.587 255.671C110.971 255.748 111.37 255.688 111.712 255.5C112.009 255.224 112.194 254.852 112.232 254.453C112.833 251.694 113.434 248.935 114.034 246.176C114.761 243.118 115.314 240.023 115.692 236.905C115.897 234.893 115.955 232.869 116.014 230.848L116.478 214.757C116.696 212.385 116.373 209.996 115.533 207.762L112.86 199.408C111.335 194.641 107.836 190.413 106.591 185.569C105.802 182.502 105.22 179.212 103.105 176.822C100.091 173.415 94.8762 172.885 90.3117 173.471C88.2497 173.736 86.1699 174.192 84.3863 175.239C82.3238 176.45 80.8044 178.358 79.3344 180.221C78.123 181.757 76.8899 182.992 75.6503 184.506Z" fill="#77C117"/>
<path d="M86.3082 231.834C86.6842 233.422 87.474 234.886 87.9575 236.446C88.7674 239.059 88.6987 241.873 89.5071 244.487C89.8464 245.584 90.338 246.637 90.5815 247.759C91.1493 250.373 90.3203 253.077 89.2905 255.552C88.2607 258.027 87.0065 260.467 86.6722 263.119C86.4368 264.987 86.775 267.096 88.2455 268.309C89.7722 269.567 91.9908 269.482 93.9792 269.315C94.693 269.295 95.3976 269.151 96.0601 268.89C97.5808 268.186 98.2212 266.424 98.5767 264.814C99.7679 259.419 99.4276 253.826 99.0814 248.317L98.1761 233.908C98.0018 231.134 97.8151 228.303 96.9421 225.639C96.6246 224.67 96.0711 222.712 95.1672 222.094C94.272 221.481 91.7156 221.454 90.6072 221.403C85.4071 221.164 85.4654 228.27 86.3082 231.834Z" fill="#FBBEBE"/>
<path d="M92.0698 178.634C91.0078 178.09 89.6697 178.324 88.6432 178.931C87.652 179.595 86.7839 180.421 86.0762 181.371C83.7813 184.114 81.3519 187.261 81.6923 190.791C81.8199 192.115 82.3375 193.368 82.6884 194.652C84.227 200.283 82.5256 206.239 82.7208 212.065C82.8336 215.432 83.5818 218.743 84.3268 222.032C84.4789 222.703 84.7224 223.48 85.3855 223.706C85.8835 223.875 86.4215 223.657 86.9145 223.473C88.751 222.809 90.7239 222.587 92.6664 222.827C94.6089 223.067 96.4638 223.761 98.0745 224.851C99.306 224.207 98.8446 222.173 98.5685 220.833C97.7481 216.852 98.8617 212.746 100.214 208.907C101.566 205.068 103.185 201.234 103.409 197.179C103.662 192.585 102.107 188.1 100.572 183.752C100.237 182.803 99.8705 181.807 99.0936 181.151C98.4286 180.667 97.6664 180.326 96.8572 180.151C95.2267 179.679 93.576 179.407 92.0698 178.634Z" fill="#2F2E41"/>
</g>
<defs>
<clipPath id="clip0">
<rect x="0.148926" width="484.085" height="359.858" fill="white"/>
</clipPath>
</defs>
</svg>
