<svg width="531" height="394" viewBox="0 0 531 394" fill="none" xmlns="http://www.w3.org/2000/svg">
<g clip-path="url(#clip0)">
<path d="M531 392.841H0V393.793H531V392.841Z" fill="#2F2E41"/>
<path d="M489.131 93.5961H486.884V34.3121C486.885 29.8061 485.964 25.3442 484.175 21.1812C482.386 17.0181 479.764 13.2354 476.458 10.049C473.152 6.86268 469.228 4.33508 464.908 2.61056C460.589 0.886032 455.959 -0.00164685 451.284 -0.00180054H320.962C311.52 -0.00180054 302.465 3.61322 295.788 10.048C289.111 16.4828 285.361 25.2102 285.361 34.3104V359.549C285.361 368.65 289.111 377.377 295.788 383.812C302.465 390.247 311.52 393.862 320.962 393.862H451.284C460.726 393.862 469.782 390.247 476.458 383.812C483.135 377.377 486.886 368.65 486.886 359.549V135.796H489.132L489.131 93.5961Z" fill="#3F3D56"/>
<path d="M479.308 34.5515V359.311C479.308 366.107 476.506 372.624 471.52 377.43C466.534 382.236 459.771 384.935 452.72 384.935H321.773C314.722 384.935 307.959 382.236 302.973 377.43C297.987 372.624 295.186 366.107 295.185 359.311V34.5515C295.186 27.7558 297.987 21.2386 302.973 16.4335C307.959 11.6283 314.722 8.92869 321.773 8.92838H337.659C336.878 10.7771 336.581 12.7823 336.793 14.7677C337.005 16.7531 337.72 18.6579 338.876 20.3143C340.031 21.9708 341.591 23.3283 343.418 24.2674C345.246 25.2064 347.285 25.6983 349.355 25.6997H424.015C426.086 25.6982 428.125 25.2063 429.952 24.2672C431.779 23.3281 433.339 21.9706 434.494 20.3141C435.65 18.6576 436.365 16.7529 436.577 14.7676C436.789 12.7822 436.492 10.777 435.711 8.92838H452.72C459.771 8.92853 466.534 11.6283 471.52 16.4339C476.506 21.2394 479.308 27.7571 479.308 34.5532V34.5515Z" fill="white"/>
<path d="M365.748 85.1902C365.748 85.1902 364.583 81.1526 362.834 80.1397V85.1902C362.834 85.1902 355.847 84.1802 350.897 89.2278L355.555 90.2378C355.555 90.2378 348.713 92.4263 347.258 101.854L350.172 100.508L358.033 116.67L362.982 107.916L372.879 117.68L370.55 112.293L374.335 113.976L371.714 109.599L383.36 114.65L382.487 111.958L386.754 118.849C386.754 118.849 401.411 104.214 385.398 88.7258C385.4 88.7258 378.121 81.3182 365.748 85.1902Z" fill="#2F2E41"/>
<path d="M364.404 121.148C364.404 121.148 368.744 137.043 367.439 139.135C366.135 141.226 380.026 152.52 380.026 152.52L393.48 150.01L394.348 132.024C394.348 132.024 382.196 121.985 384.8 114.455L364.404 121.148Z" fill="#FFB9B9"/>
<path opacity="0.1" d="M364.404 121.148C364.404 121.148 368.744 137.043 367.439 139.135C366.135 141.226 380.026 152.52 380.026 152.52L393.48 150.01L394.348 132.024C394.348 132.024 382.196 121.985 384.8 114.455L364.404 121.148Z" fill="black"/>
<path d="M353.119 221.541C353.119 221.541 349.647 242.456 352.251 259.606C354.855 276.756 356.157 289.305 354.855 291.814C353.553 294.324 352.251 293.906 353.119 296.834C353.987 299.762 355.723 298.507 353.987 301.435C352.252 304.363 352.686 309.383 352.686 310.637C352.686 311.892 350.516 339.082 352.686 342.01C354.856 344.938 355.721 344.519 355.721 344.519L358.326 359.578L372.214 357.487L370.044 343.683C370.044 343.683 375.252 341.173 373.08 339.5C370.908 337.827 369.608 337.827 370.91 337.827C372.212 337.827 374.382 337.409 372.646 336.572C370.909 335.735 372.212 313.147 372.212 313.147C372.212 313.147 375.247 271.736 387.402 272.991C399.557 274.246 409.105 298.508 409.105 298.508L412.578 309.383C412.578 309.383 413.879 329.88 414.748 331.553C415.616 333.226 415.182 333.644 414.748 334.479C414.313 335.313 411.275 333.223 414.313 336.57C417.352 339.917 417.349 341.171 417.349 341.171L419.302 363.132L433.412 354.561V341.594C433.412 341.594 436.016 337.411 435.148 334.065C434.28 330.718 434.28 314.823 435.148 311.896C436.016 308.968 435.582 308.131 434.714 306.876C433.846 305.621 431.678 306.458 433.411 303.529C435.145 300.601 436.447 293.072 433.845 287.634C431.244 282.196 416.919 228.654 410.843 225.724C404.767 222.793 353.119 221.541 353.119 221.541Z" fill="#2F2E41"/>
<path d="M372.216 350.376C372.216 350.376 362.234 348.703 361.8 351.213C361.561 353.298 361.561 355.402 361.8 357.487C361.8 357.487 358.327 357.905 358.764 360.833C359.2 363.761 359.632 371.709 359.632 371.709C359.632 371.709 354.207 384.049 357.245 386.977C357.275 387.006 363.238 386.768 366.665 386.768H379.162C379.162 386.768 380.898 380.912 379.162 380.076C377.427 379.239 373.52 371.708 373.954 370.037C374.388 368.365 373.954 356.233 373.954 356.233L372.037 356.337L372.216 350.376Z" fill="#3F3D56"/>
<path d="M422.996 357.905L417.788 361.67C417.788 361.67 419.957 368.781 418.656 370.038C417.354 371.295 414.533 385.724 417.138 386.561C419.743 387.397 435.801 386.142 435.801 386.142C435.801 386.142 453.812 386.769 454.246 385.933C454.679 385.097 455.548 380.077 450.34 378.404C445.132 376.731 442.094 377.149 440.358 372.129C438.622 367.109 434.716 359.58 434.716 359.58L433.847 350.378C433.847 350.378 428.639 351.215 427.771 351.215C426.903 351.215 422.563 353.306 422.997 354.98C423.261 355.938 423.26 356.947 422.996 357.905Z" fill="#3F3D56"/>
<path d="M371.782 126.379C381.729 126.379 389.794 118.607 389.794 109.019C389.794 99.4319 381.729 91.6598 371.782 91.6598C361.834 91.6598 353.77 99.4319 353.77 109.019C353.77 118.607 361.834 126.379 371.782 126.379Z" fill="#FFB9B9"/>
<path d="M383.5 138.719L390.011 127.751C390.011 127.751 405.201 127.006 406.07 128.679C406.938 130.353 414.316 213.177 414.316 213.177C414.316 213.177 417.788 217.778 415.618 220.706L413.448 223.632V229.488C413.448 229.488 402.597 237.856 387.841 236.181C373.085 234.505 354.422 226.979 354.422 226.979L358.329 203.554L357.894 134.535L366.637 130.427C366.637 130.427 376.555 137.045 378.291 139.136C380.027 141.228 383.5 138.719 383.5 138.719Z" fill="#81C117"/>
<path d="M368.31 138.718L366.356 127.634L339.664 145.832L354.418 187.662C354.418 187.662 345.303 203.557 347.04 209.414C348.776 215.27 349.644 224.054 349.644 224.054C349.644 224.054 373.08 229.91 372.646 226.98C372.213 224.049 372.646 211.084 372.646 211.084C372.646 211.084 380.236 156.914 376.441 148.653C372.645 140.392 368.31 138.718 368.31 138.718Z" fill="#E6E6E6"/>
<path d="M392.18 133.281L388.057 125.542C388.057 125.3 417.352 129.205 418.658 131.607L415.183 196.025C415.183 196.025 415.618 205.227 417.788 207.737C419.958 210.247 419.523 214.43 418.656 214.848C417.788 215.267 403.465 219.449 403.465 219.449C403.465 219.449 389.577 196.443 390.879 168.833C392.182 141.222 392.18 133.281 392.18 133.281Z" fill="#E6E6E6"/>
<path d="M413.448 132.025L418.044 131.082C419.844 132.058 421.274 133.56 422.128 135.371C423.43 138.297 438.621 169.672 438.621 171.763C438.621 173.855 439.055 189.332 429.506 189.332C419.958 189.332 412.579 150.012 412.579 150.012L413.448 132.025Z" fill="#E6E6E6"/>
<path d="M348.345 240.364L356.157 251.658L360.497 237.438L357.462 233.256L348.345 240.364Z" fill="#FFB9B9"/>
<path d="M343.571 146.247L339.665 145.829L330.116 195.188L346.609 244.547L360.931 234.089L350.949 201.044L354.421 175.528L343.571 146.247Z" fill="#E6E6E6"/>
<path d="M390.586 104.121C388.201 95.743 380.743 89.6281 371.906 89.6281C368.824 89.6586 365.796 90.4102 363.083 91.8183C360.37 93.2264 358.052 95.2488 356.329 97.7115L360.786 105.942L365.229 98.8818L374.116 106.757L372.025 102.412L375.425 103.77L373.073 100.239L383.528 104.313L382.743 102.14L387.71 108.386C388.864 107.096 389.832 105.662 390.586 104.121Z" fill="#2F2E41"/>
<path opacity="0.1" d="M410.626 152.313L422.321 162.14L416.268 149.383L410.626 152.313Z" fill="black"/>
<path d="M405.635 150.849C405.635 150.849 399.993 134.117 393.049 137.045C386.105 139.973 395.653 157.541 395.653 157.541L401.729 161.306L405.635 150.849Z" fill="#FFB9B9"/>
<path d="M435.582 172.182L405.201 149.176L394.35 164.653C394.35 164.653 422.995 193.934 429.504 188.078C436.014 182.222 435.582 172.182 435.582 172.182Z" fill="#E6E6E6"/>
<path d="M114.363 104.526H85.5112V111.22H114.363V104.526Z" fill="#81C117"/>
<path d="M214.276 104.526H204.124V111.22H214.276V104.526Z" fill="#81C117"/>
<path d="M234.579 104.526H224.427V111.22H234.579V104.526Z" fill="#81C117"/>
<path d="M193.438 104.526H124.515V111.22H193.438V104.526Z" fill="#81C117"/>
<path d="M78.0311 147.781H49.1793V154.475H78.0311V147.781Z" fill="#81C117"/>
<path d="M177.944 147.781H167.792V154.475H177.944V147.781Z" fill="#81C117"/>
<path d="M198.247 147.781H188.095V154.475H198.247V147.781Z" fill="#81C117"/>
<path d="M157.106 147.781H88.1827V154.475H157.106V147.781Z" fill="#81C117"/>
<path d="M197.178 119.459H168.327V126.153H197.178V119.459Z" fill="#81C117"/>
<path d="M236.182 119.459H207.33V126.153H236.182V119.459Z" fill="#81C117"/>
<path d="M59.3308 119.459H49.1793V126.153H59.3308V119.459Z" fill="#81C117"/>
<path d="M79.634 119.459H69.4824V126.153H79.634V119.459Z" fill="#81C117"/>
<path d="M158.709 119.459H89.7855V126.153H158.709V119.459Z" fill="#81C117"/>
<path d="M108.486 140.572H137.338V133.877H108.486V140.572Z" fill="#81C117"/>
<path d="M69.4824 140.572H98.3342V133.877H69.4824V140.572Z" fill="#81C117"/>
<path d="M49.1793 140.572H59.3309V133.877H49.1793V140.572Z" fill="#81C117"/>
<path d="M226.03 140.572H236.182V133.877H226.03V140.572Z" fill="#81C117"/>
<path d="M146.955 140.572H215.879V133.877H146.955V140.572Z" fill="#81C117"/>
<path d="M38.0593 392.921L37.4886 392.715C37.3629 392.67 24.8799 388.06 19.0312 377.608C13.1825 367.156 16.0464 354.57 16.0762 354.445L16.211 353.872L16.7817 354.078C16.9074 354.124 29.3904 358.733 35.2391 369.185C41.0878 379.637 38.2238 392.223 38.1941 392.348L38.0593 392.921ZM19.9662 377.122C24.9102 385.958 34.7752 390.489 37.2743 391.523C37.7497 388.941 39.2396 378.5 34.2992 369.672C29.3588 360.844 19.4914 356.307 16.9911 355.271C16.5182 357.854 15.0288 368.293 19.968 377.121L19.9662 377.122Z" fill="#3F3D56"/>
<path d="M23.5015 373.941C34.0107 380.035 38.058 392.14 38.058 392.14C38.058 392.14 25.0649 394.364 14.5576 388.27C4.05019 382.177 0.00109863 370.072 0.00109863 370.072C0.00109863 370.072 12.9923 367.848 23.5015 373.941Z" fill="#81C117"/>
<path d="M318.691 380.767L332.048 362.658L318.662 382.751L318.632 384.826C317.693 384.809 316.764 384.77 315.844 384.709C315.844 384.238 317.234 358.326 317.191 357.857C317.256 357.84 317.318 355.406 317.345 355.3L303.793 335.238L317.379 353.414L317.414 353.948L318.441 333.818L306.828 313.08L318.571 330.28C318.578 330.006 319.567 288.66 319.576 288.405C319.576 288.541 319.495 321.315 319.495 321.453L330.942 308.371L319.454 324.288L319.211 342.311L329.891 324.983C316.528 350.276 319.519 341.409 319.043 354.985L334.542 330.862L318.994 358.482L318.691 380.767Z" fill="#D0CDE1"/>
<path d="M458.167 382.032L467.361 369.569L458.149 383.398L458.128 384.825C457.481 384.814 456.841 384.788 456.21 384.746C456.21 384.422 457.166 366.588 457.137 366.265C457.182 366.254 457.224 364.579 457.243 364.506L447.916 350.696L457.266 363.205L457.291 363.572L457.997 349.717L450.004 335.444L458.086 347.282C458.091 347.094 458.772 318.637 458.778 318.462C458.778 318.555 458.721 341.112 458.722 341.207L466.601 332.203L458.694 343.157L458.525 355.563L465.872 343.636C456.674 361.044 458.733 354.941 458.404 364.285L469.071 347.682L458.376 366.694L458.167 382.032Z" fill="#D0CDE1"/>
<path d="M313.463 41.3142C314.193 41.3142 314.785 40.7436 314.785 40.0397C314.785 39.3358 314.193 38.7652 313.463 38.7652C312.732 38.7652 312.14 39.3358 312.14 40.0397C312.14 40.7436 312.732 41.3142 313.463 41.3142Z" fill="#3F3D56"/>
<path d="M318.311 41.3142C319.042 41.3142 319.634 40.7436 319.634 40.0397C319.634 39.3358 319.042 38.7652 318.311 38.7652C317.581 38.7652 316.989 39.3358 316.989 40.0397C316.989 40.7436 317.581 41.3142 318.311 41.3142Z" fill="#3F3D56"/>
<path d="M323.161 41.3142C323.891 41.3142 324.483 40.7436 324.483 40.0397C324.483 39.3358 323.891 38.7652 323.161 38.7652C322.43 38.7652 321.838 39.3358 321.838 40.0397C321.838 40.7436 322.43 41.3142 323.161 41.3142Z" fill="#3F3D56"/>
<path d="M461.583 36.6411H447.917V38.3404H461.583V36.6411Z" fill="#3F3D56"/>
<path d="M461.583 39.19H447.917V40.8893H461.583V39.19Z" fill="#3F3D56"/>
<path d="M461.583 41.7396H447.917V43.4389H461.583V41.7396Z" fill="#3F3D56"/>
</g>
<defs>
<clipPath id="clip0">
<rect width="531" height="393.862" fill="white"/>
</clipPath>
</defs>
</svg>
